<svg id="Layer_1" data-name="Layer 1" xmlns="http://www.w3.org/2000/svg" viewBox="0 0 1386.38 860.65"><defs><style>.cls-1{fill:#de9325;}.cls-2{fill:#4bb700;}.cls-3{fill:#115d8e;}.cls-4{fill:#436902;}.cls-5{fill:none;stroke:#fff;stroke-miterlimit:10;stroke-width:4px;}.cls-6{fill:#4db301;}</style></defs><title>ndc_logo_colored</title><path class="cls-1" d="M1234.9,427.22c-26.17,32-63.4,52.08-104.72,52.08-79.2,0-143.4-73.56-143.4-164.31s64.2-164.31,143.4-164.31c37.42,0,71.48,16.43,97,43.33l84.23-70.94c-46.83-45.85-108-73.74-178.07-72-157.73,4-260.5,117.7-260.5,262.89s92.41,262.9,270.86,262.9c69.89,0,135.39-32.48,181.81-84.37Z"/><path class="cls-2" d="M753.26,64.4H550.38V563.51H753.86c139.61,0,259.51-102.37,259.51-249.56C1013.37,117,836.11,64.4,753.26,64.4ZM738.92,464.32H657.53V166.37H763.36c24,2.65,135.69,22.31,135.69,149C899.05,411.74,821,464.32,738.92,464.32Z"/><polygon class="cls-3" points="438.05 63.6 438.05 411.18 222.07 63.6 74.77 63.6 74.77 564.3 183.51 564.3 183.51 206.6 405.78 564.3 550.38 564.3 550.38 63.6 438.05 63.6"/><path class="cls-4" d="M881.55,241.93s14.14-70,57.36-108.34c0,0,53.94,44.39,64.56,104.4,0,0-40.78,64.15-.68,149.13,0,0-11,53.57-66.56,107.2,0,0-46.91-49.38-54.68-106.15C881.55,388.17,921.92,318.41,881.55,241.93Z"/><line class="cls-5" x1="938.2" y1="130.47" x2="938.99" y2="500.12"/><line class="cls-5" x1="888.8" y1="216.51" x2="938.6" y2="272.27"/><line class="cls-5" x1="989.98" y1="272.27" x2="938.6" y2="328.04"/><line class="cls-5" x1="890.4" y1="323.26" x2="938.6" y2="373.45"/><path class="cls-6" d="M1036.75,250.79c3.74,1.07,7.73,2,11.53,3.38,4.68,1.76,7.18-.51,9.66-4s5-6.63,1.68-10.94c-1.54-2-2.7-4.29-4.19-6.33-2.23-3.05-2.3-5.23.56-8.49,4-4.55,7.16-5.15,11.25-.71a14.1,14.1,0,0,0,2.36,1.71c6.81,4.73,11.68,4.16,17.09-2.35a7,7,0,0,0,1-4.76,45.48,45.48,0,0,0-1.77-6.76c-1.79-6.66,1.21-11.44,7.9-12.17,1-.11,2.44.86,3.16,1.74a54.42,54.42,0,0,1,5.42,7.6c2.19,3.88,4.87,4.69,9.18,3.43,8.9-2.62,9-2.37,9.55-13.37.42-7.94,1.26-8.63,8.26-8.8,3.58-.09,5.52,1.13,6.1,4.65.22,1.33.73,2.62,1,3.95,2.11,9.55,2.12,9.38,11.68,10.13,4.31.34,7.15-.7,8.49-5,.63-2,2-3.85,2.55-5.89,1.24-4.65,3.8-6.08,8.63-5.12,5.15,1,6.88,3.63,5.9,8.54-.19.95-.19,1.94-.3,2.9-.94,8.87,2.5,13.42,11.31,14.42a6.63,6.63,0,0,0,4.47-1.88,36.55,36.55,0,0,0,6.2-7c3.49-5.38,7-3.87,11.11-.85,2.64,2,3.38,4,1.83,7-.89,1.72-1.44,3.62-2.19,5.42-3.52,8.44-3.38,8.28,3.17,14.69,3.13,3.06,5.85,4.09,9.6,1.33,1.7-1.26,3.92-1.81,5.6-3.09,4.55-3.48,7.77-3.4,11.27,1.92,2.15,3.26,2.67,5.12-.13,7.82-2,1.88-3.39,4.34-5.44,6.09-3.84,3.28-3.74,6.54-1.35,10.71,4.37,7.66,4.19,7.75,13.21,5.94,1.52-.3,3.14-.22,4.61-.66,4.38-1.31,6.67,0,8.31,4.52s.94,6.94-3.29,8.86c-2.1,1-3.83,2.79-6,3.63-5.46,2.17-6.08,5.79-5,11.19s3.4,7.86,8.64,8.19a47.19,47.19,0,0,1,6.31,1.05c5.37,1.08,8.69,6.23,6.9,11.29-.45,1.28-2.36,2.46-3.83,2.86a73.3,73.3,0,0,1-10.32,1.93c-4,.52-6,2.47-6.68,6.63-1.51,8.78-1.75,8.74,6.22,13.2,1.53.85,3,1.85,4.59,2.54,3.9,1.69,5.68,3.91,4.17,8.57s-4,6.29-8.65,5.24c-1.89-.43-4-.18-5.78-.76-6-1.89-9.23.37-11.83,5.91-2,4.2-2.13,7.15,1.4,10.25,1.75,1.53,3,3.66,4.7,5.2,4.32,3.82,4.65,7.47.55,11.81-2.21,2.33-3.84,3.48-6.81,1.22-1.82-1.38-4.21-2-6.29-3-8.18-4.09-9.22-4.14-15,2.53a8.88,8.88,0,0,0-1.31,7.09c1.41,5,3.74,9.73,5.54,14.17a5.55,5.55,0,0,1-.49,1.09c-8.22,7.11-8.22,7.11-15.86-.62a16.87,16.87,0,0,1-2.4-2.54c-3.76-5.9-8.19-3.53-13-1.56s-4.59,5.6-4.15,9.61c.21,1.93,0,3.92.33,5.82.8,4.85-.74,7.42-5.89,8.67s-7.07-1.23-8.67-5.14a49.54,49.54,0,0,1-2.16-4.77c-1.77-6-6-6.5-11.44-6s-6.8,3.46-7.4,7.93a32.16,32.16,0,0,1-1.56,5.62c-1,3.09-.45,7.24-6.12,6.54-5.18-.64-9.29-1.46-8.91-8a28.17,28.17,0,0,0-.51-5.23c-1-7.59-4.88-10.74-12.55-9.82a6.41,6.41,0,0,0-3.76,2.15,52,52,0,0,0-4.54,6.78c-4,6.83-4.18,6.78-11.38,3.77-3.75-1.57-5-3.49-3.44-7.55,1.12-2.84,1-6.16,1.9-9.12,1.14-3.66-.09-5.68-3.24-7.63-7.72-4.78-7.63-4.92-14.88.87l-7.12,5.7c-.63-.07-1.11,0-1.34-.18-10.52-9.17-10.08-5.28-2.75-17.7,2.15-3.64,4.4-6.57.66-10.85s-6.87-8.1-13.06-4.63a23.73,23.73,0,0,1-3.28,1.21c-7.8,2.85-8.61,2.66-11.59-5-.64-1.64.14-4.31,1.15-6a13.55,13.55,0,0,1,4.82-4.15c5.89-3.48,6.19-7.88,3.53-13.79-1.81-4-4-5.82-8.36-5.33-1.92.22-3.94-.27-5.83.06-6,1.06-7.85-2.11-8.26-7.43-.28-3.6.6-6,4.27-7.07,1.3-.37,2.58-.87,3.86-1.34,7.87-2.9,10.47-7.82,7.84-15.71-.5-1.52-2.48-2.79-4.06-3.63a46.06,46.06,0,0,0-6.57-2.43c-6.62-2.32-8.27-5.93-5.3-12.32a5.32,5.32,0,0,1,3.55-2.24,54.38,54.38,0,0,1,7.57-.4c4.38-.13,7.81-.42,9.64-6,2.1-6.43,1.2-10.2-4.35-14.17C1029.43,261.16,1029.63,260.12,1036.75,250.79Zm33.66,58c-1.28,37.5,27.49,72.57,68,75.07,38,2.35,71.55-28,73.4-67.64,1.87-39.94-26.54-71.91-65.22-75.13C1106.46,237.79,1073.09,267.83,1070.41,308.83Z"/><path class="cls-2" d="M267.78,802.32V737.6h50.8v10.94h-37v14.35H316V773.8h-34.4v17.61h38.28v10.91Z"/><path class="cls-2" d="M376.67,802.32H363.54V778.39c0-5.06-.28-8.34-.84-9.82A6.88,6.88,0,0,0,360,765.1a8.17,8.17,0,0,0-4.55-1.24,10.91,10.91,0,0,0-6.12,1.77,9,9,0,0,0-3.72,4.68q-1,2.91-1,10.77v21.24H331.43V755.43h12.2v6.89a20.25,20.25,0,0,1,16.36-8,20.6,20.6,0,0,1,7.94,1.48,12.39,12.39,0,0,1,8,9,37,37,0,0,1,.72,8.35Z"/><path class="cls-2" d="M399.81,769.73l-11.92-2q2-6.8,6.92-10.06t14.58-3.27q8.79,0,13.09,2a12.9,12.9,0,0,1,6,5q1.75,3,1.75,11.11l-.14,14.48a47.49,47.49,0,0,0,.63,9.11,25.8,25.8,0,0,0,2.36,6.3h-13c-.35-.83-.77-2.05-1.26-3.67-.22-.73-.38-1.22-.47-1.46a23.72,23.72,0,0,1-7.2,4.64,21.64,21.64,0,0,1-8.18,1.54q-7.66,0-12.08-3.92a13,13,0,0,1,3.23-21.79,45.81,45.81,0,0,1,10.44-2.89,75.17,75.17,0,0,0,12.76-3v-1.24q0-3.57-1.87-5.09t-7.06-1.53a9.77,9.77,0,0,0-5.46,1.31A9,9,0,0,0,399.81,769.73Zm17.57,10.07c-1.68.53-4.35,1.16-8,1.9s-6,1.45-7.15,2.16a5.11,5.11,0,0,0-2.57,4.37,5.91,5.91,0,0,0,2.05,4.5,7.41,7.41,0,0,0,5.24,1.9,11.82,11.82,0,0,0,6.78-2.2,7.86,7.86,0,0,0,3.13-4.11,23.34,23.34,0,0,0,.51-6.05Z"/><path class="cls-2" d="M442.67,802.32V737.6H455.8v23.3a19,19,0,0,1,14.39-6.53,19.91,19.91,0,0,1,15,6.2q5.93,6.21,5.93,17.82,0,12-6.05,18.5a19.38,19.38,0,0,1-14.7,6.48,19.13,19.13,0,0,1-8.39-2,19.8,19.8,0,0,1-7.13-5.94v6.89Zm13-24.46c0,4.85.81,8.45,2.43,10.77a10.49,10.49,0,0,0,9.06,4.94,9.49,9.49,0,0,0,7.41-3.51q3.06-3.51,3.06-11,0-8-3.08-11.59a10,10,0,0,0-7.9-3.56,10.12,10.12,0,0,0-7.85,3.47Q455.71,770.8,455.71,777.86Z"/><path class="cls-2" d="M501.69,802.32V737.6h13.14v64.72Z"/><path class="cls-2" d="M528.29,749.07V737.6h13.13v11.47Zm0,53.25V755.43h13.13v46.89Z"/><path class="cls-2" d="M600,802.32H586.89V778.39c0-5.06-.28-8.34-.84-9.82a6.92,6.92,0,0,0-2.73-3.47,8.18,8.18,0,0,0-4.56-1.24,11,11,0,0,0-6.12,1.77,9,9,0,0,0-3.72,4.68q-1,2.91-1,10.77v21.24H554.79V755.43H567v6.89a20.28,20.28,0,0,1,16.36-8,20.65,20.65,0,0,1,7.95,1.48,12.4,12.4,0,0,1,8,9,36.31,36.31,0,0,1,.73,8.35Z"/><path class="cls-2" d="M612.13,805.4l15,1.73a4.77,4.77,0,0,0,1.73,3.4q1.88,1.32,5.89,1.32,5.14,0,7.71-1.46a6,6,0,0,0,2.62-3.13,17.7,17.7,0,0,0,.61-5.7v-6.84q-5.9,7.59-14.86,7.6a18.62,18.62,0,0,1-15.85-8q-4.58-6.3-4.58-15.71,0-11.79,6-18a19.9,19.9,0,0,1,14.93-6.23q9.21,0,15.19,7.64v-6.58h12.29V797.5q0,8.31-1.45,12.41a15.18,15.18,0,0,1-4.06,6.44,18.34,18.34,0,0,1-7,3.67,38.92,38.92,0,0,1-11.05,1.32q-12.63,0-17.9-4.08a12.55,12.55,0,0,1-5.28-10.35C612.09,806.49,612.1,806,612.13,805.4Zm11.73-27.5q0,7.47,3.06,10.93a9.68,9.68,0,0,0,7.55,3.46,10.68,10.68,0,0,0,8.13-3.55q3.33-3.56,3.32-10.53,0-7.29-3.17-10.81a10.34,10.34,0,0,0-8-3.54,9.94,9.94,0,0,0-7.79,3.47Q623.86,770.8,623.86,777.9Z"/><path class="cls-2" d="M721.17,755.43v9.89h-9v18.89a45.1,45.1,0,0,0,.25,6.69,2.7,2.7,0,0,0,1.17,1.57,3.89,3.89,0,0,0,2.22.62,17.89,17.89,0,0,0,5.28-1.19l1.12,9.62a27.35,27.35,0,0,1-10.37,1.85,17.29,17.29,0,0,1-6.4-1.12,9.31,9.31,0,0,1-4.19-2.91,11.12,11.12,0,0,1-1.84-4.84,56.84,56.84,0,0,1-.42-8.74V765.32h-6v-9.89h6v-9.31l13.18-7.24v16.55Z"/><path class="cls-2" d="M743.37,737.6v23.79a19.81,19.81,0,0,1,15.19-7,20.27,20.27,0,0,1,8.18,1.59,13.25,13.25,0,0,1,5.49,4.06,14.35,14.35,0,0,1,2.52,5.48,46.3,46.3,0,0,1,.68,9.31v27.51H762.3V777.55q0-7.38-.75-9.36a6.21,6.21,0,0,0-2.64-3.16,8.86,8.86,0,0,0-4.74-1.17,11.4,11.4,0,0,0-5.85,1.5,8.8,8.8,0,0,0-3.76,4.53,25.74,25.74,0,0,0-1.19,8.94v23.49H730.24V737.6Z"/><path class="cls-2" d="M817.49,787.39l13.09,2.08a20.39,20.39,0,0,1-8,10.35q-5.45,3.55-13.62,3.55-12.94,0-19.16-8-4.92-6.39-4.91-16.15,0-11.65,6.45-18.26a21.83,21.83,0,0,1,16.31-6.6q11.07,0,17.48,6.91t6.12,21.17h-32.9q.14,5.52,3.18,8.59a10.21,10.21,0,0,0,7.57,3.06,8.39,8.39,0,0,0,5.19-1.59A9.67,9.67,0,0,0,817.49,787.39Zm.75-12.53q-.13-5.39-2.94-8.19a9.85,9.85,0,0,0-13.93.15,11,11,0,0,0-2.76,8Z"/><path class="cls-2" d="M862.83,755.43h7.29V751.9c0-3.94.44-6.89,1.33-8.83a10.27,10.27,0,0,1,4.91-4.75,19.76,19.76,0,0,1,9-1.83,38.48,38.48,0,0,1,11,1.59l-1.77,8.65a27.46,27.46,0,0,0-6-.7,5.58,5.58,0,0,0-4.09,1.26c-.83.83-1.24,2.45-1.24,4.83v3.31h9.82v9.76h-9.82v37.13H870.12V765.19h-7.29Z"/><path class="cls-2" d="M933.12,802.32v-7a18.81,18.81,0,0,1-7.13,5.91,20.93,20.93,0,0,1-9.32,2.16,19.07,19.07,0,0,1-9-2.07,12.53,12.53,0,0,1-5.75-5.83q-1.79-3.75-1.78-10.37V755.43H913.3V777q0,9.9.73,12.12a6.55,6.55,0,0,0,2.64,3.53,8.46,8.46,0,0,0,4.86,1.31,10.73,10.73,0,0,0,6-1.75,9,9,0,0,0,3.64-4.32q1-2.58,1-12.65V755.43h13.13v46.89Z"/><path class="cls-2" d="M981.68,755.43v9.89h-9v18.89a45.1,45.1,0,0,0,.25,6.69,2.7,2.7,0,0,0,1.17,1.57,3.89,3.89,0,0,0,2.22.62,17.89,17.89,0,0,0,5.28-1.19l1.12,9.62a27.35,27.35,0,0,1-10.37,1.85,17.29,17.29,0,0,1-6.4-1.12,9.31,9.31,0,0,1-4.19-2.91A11.12,11.12,0,0,1,960,794.5a56.84,56.84,0,0,1-.42-8.74V765.32h-6v-9.89h6v-9.31l13.18-7.24v16.55Z"/><path class="cls-2" d="M1023.46,802.32v-7a18.81,18.81,0,0,1-7.13,5.91,20.93,20.93,0,0,1-9.32,2.16,19.13,19.13,0,0,1-9-2.07,12.53,12.53,0,0,1-5.75-5.83q-1.78-3.75-1.78-10.37V755.43h13.14V777q0,9.9.72,12.12a6.55,6.55,0,0,0,2.64,3.53,8.46,8.46,0,0,0,4.86,1.31,10.73,10.73,0,0,0,6-1.75,9,9,0,0,0,3.65-4.32q1-2.58,1-12.65V755.43h13.13v46.89Z"/><path class="cls-2" d="M1061.83,802.32H1048.7V755.43h12.2v6.67q3.12-4.73,5.63-6.23a10.83,10.83,0,0,1,5.68-1.5,17.37,17.37,0,0,1,8.64,2.34l-4.06,10.82a11.91,11.91,0,0,0-6.17-2,7.58,7.58,0,0,0-4.67,1.43q-1.92,1.44-3,5.19t-1.1,15.71Z"/><path class="cls-2" d="M1115.25,787.39l13.09,2.08a20.39,20.39,0,0,1-8,10.35q-5.44,3.55-13.62,3.55-12.95,0-19.17-8-4.9-6.39-4.9-16.15,0-11.65,6.45-18.26a21.83,21.83,0,0,1,16.31-6.6q11.07,0,17.48,6.91t6.12,21.17h-32.9q.13,5.52,3.18,8.59a10.21,10.21,0,0,0,7.57,3.06,8.39,8.39,0,0,0,5.19-1.59A9.67,9.67,0,0,0,1115.25,787.39Zm.75-12.53q-.13-5.39-2.94-8.19a9.85,9.85,0,0,0-13.93.15,11,11,0,0,0-2.76,8Z"/><path class="cls-3" d="M79.92,661.33V612h6.72l26,38.81V612h6.26v49.34h-6.71l-26-38.83v38.83Z"/><path class="cls-3" d="M124.63,661.33,143.74,612h7L171,661.33h-7.5l-5.76-15H136.93l-5.39,15Zm14.21-20.26h16.88l-5.15-13.67c-1.59-4.19-2.76-7.61-3.5-10.23a61.36,61.36,0,0,1-2.72,9.42Z"/><path class="cls-3" d="M183.84,661.33V617.81H167.53V612H206.8v5.82H190.4v43.52Z"/><path class="cls-3" d="M214.67,661.33V612h6.55v49.34Z"/><path class="cls-3" d="M230.82,637.3q0-12.63,6.8-19.41a23,23,0,0,1,16.93-6.78,24,24,0,0,1,11.95,3,21.87,21.87,0,0,1,8.56,8.8,28.3,28.3,0,0,1,3.15,13.75q0,11-6.1,17.87-6.72,7.61-17.6,7.61t-17.63-7.81A25.33,25.33,0,0,1,230.82,637.3Zm6.76.08q0,9.14,4.92,14.17a16.84,16.84,0,0,0,24.07-.06q4.88-5.09,4.88-15a25.2,25.2,0,0,0-2.51-11.39,14.84,14.84,0,0,0-5.83-6.14,16.41,16.41,0,0,0-8.51-2.31,16.11,16.11,0,0,0-12.22,5Q237.58,626.81,237.58,637.38Z"/><path class="cls-3" d="M286.32,661.33V612H293l26,38.81V612h6.27v49.34h-6.72l-26-38.83v38.83Z"/><path class="cls-3" d="M331,661.33,350.14,612h7l20.28,49.34h-7.5l-5.76-15H343.33l-5.38,15Zm14.22-20.26h16.87L357,627.4c-1.59-4.19-2.76-7.61-3.5-10.23a61.31,61.31,0,0,1-2.71,9.42Z"/><path class="cls-3" d="M382.21,661.33V612h6.56V655.5h24.39v5.83Z"/><path class="cls-3" d="M437.68,661.33V612h17.1a38.41,38.41,0,0,1,9.64.91,16.83,16.83,0,0,1,7.5,4.3,21.43,21.43,0,0,1,4.95,7.9,32.36,32.36,0,0,1,1.77,11.29,30.87,30.87,0,0,1-3,14.22,18.39,18.39,0,0,1-7.73,8.28q-4.71,2.43-12.34,2.44Zm6.55-5.83h10.55c4.26,0,7.48-.56,9.68-1.7a11.28,11.28,0,0,0,5.07-5.46,28.11,28.11,0,0,0,2.35-12q0-7.5-2.49-11.8a12.48,12.48,0,0,0-6.41-5.74,26.16,26.16,0,0,0-8.37-1H444.23Z"/><path class="cls-3" d="M487.91,661.33V612h35.81v5.82H494.46v15.08h27.4v5.82h-27.4V655.5h30.41v5.83Z"/><path class="cls-3" d="M548.14,661.33,528.91,612H536l12.91,35.84c1,2.78,1.86,5.48,2.6,8.08q1.15-4.08,2.64-8.08L567.56,612h6.68l-19.37,49.34Z"/><path class="cls-3" d="M580.21,661.33V612H616v5.82H586.76v15.08h27.4v5.82h-27.4V655.5h30.41v5.83Z"/><path class="cls-3" d="M625.83,661.33V612h6.55V655.5h24.39v5.83Z"/><path class="cls-3" d="M662.87,637.3q0-12.63,6.8-19.41a23,23,0,0,1,16.94-6.78,24,24,0,0,1,11.95,3,21.91,21.91,0,0,1,8.55,8.8,28.3,28.3,0,0,1,3.15,13.75q0,11-6.1,17.87-6.72,7.61-17.6,7.61t-17.63-7.81A25.33,25.33,0,0,1,662.87,637.3Zm6.76.08q0,9.14,4.92,14.17a16.84,16.84,0,0,0,24.07-.06q4.88-5.09,4.88-15A25.2,25.2,0,0,0,701,625.15a14.77,14.77,0,0,0-5.83-6.14,16.41,16.41,0,0,0-8.51-2.31,16.11,16.11,0,0,0-12.22,5Q669.63,626.81,669.63,637.38Z"/><path class="cls-3" d="M718.54,661.33V612h18.67a36.54,36.54,0,0,1,9.72.94,12.75,12.75,0,0,1,6.84,4.74,13.94,13.94,0,0,1,2.56,8.52,14.81,14.81,0,0,1-4.16,10.87q-4.17,4.22-14.38,4.21h-12.7v20.06Zm6.55-25.89h12.82q6.06,0,8.86-2.23t2.8-6.75a8.93,8.93,0,0,0-1.38-5,7.2,7.2,0,0,0-3.34-2.86c-1.3-.51-3.66-.77-7.06-.77h-12.7Z"/><path class="cls-3" d="M764.53,661.33V612h9.85l11.76,34.93,2.35,7.31q.87-2.73,2.64-7.91L803,612h8.82v49.34h-6.3V620.06l-14.45,41.27h-5.89l-14.36-42v42Z"/><path class="cls-3" d="M822.5,661.33V612h35.81v5.82H829.06v15.08h27.4v5.82h-27.4V655.5h30.41v5.83Z"/><path class="cls-3" d="M868.33,661.33V612H875l26.05,38.81V612h6.26v49.34h-6.72l-26-38.83v38.83Z"/><path class="cls-3" d="M931.17,661.33V617.81H914.85V612h39.27v5.82h-16.4v43.52Z"/><path class="cls-3" d="M1014,644l6.59,1.65q-2.17,8.31-7.64,12.4a21.51,21.51,0,0,1-13.29,4.09,23.62,23.62,0,0,1-11.76-2.75,20.37,20.37,0,0,1-8-8.8,31,31,0,0,1-3.11-14.32,28.14,28.14,0,0,1,3.12-13.79,20.84,20.84,0,0,1,8.43-8.52,24.57,24.57,0,0,1,11.88-2.88,20.86,20.86,0,0,1,12.33,3.64,19.18,19.18,0,0,1,7.22,10.7l-6.43,1.51q-3.3-10.26-13.24-10.26a17.07,17.07,0,0,0-8.59,2.07,14.55,14.55,0,0,0-5.79,6.45,24.85,24.85,0,0,0-2.17,11.08q0,10.14,4.37,15.21a14.56,14.56,0,0,0,11.62,5.07,14.4,14.4,0,0,0,9.25-3.11Q1012.63,650.35,1014,644Z"/><path class="cls-3" d="M1026.89,637.3q0-12.63,6.8-19.41a23,23,0,0,1,16.93-6.78,24,24,0,0,1,12,3,21.91,21.91,0,0,1,8.55,8.8,28.3,28.3,0,0,1,3.15,13.75q0,11-6.1,17.87-6.72,7.61-17.6,7.61T1033,654.36A25.33,25.33,0,0,1,1026.89,637.3Zm6.76.08q0,9.14,4.92,14.17a16.84,16.84,0,0,0,24.07-.06q4.88-5.09,4.88-15a25.2,25.2,0,0,0-2.51-11.39,14.84,14.84,0,0,0-5.83-6.14,16.41,16.41,0,0,0-8.51-2.31,16.11,16.11,0,0,0-12.22,5Q1033.65,626.81,1033.65,637.38Z"/><path class="cls-3" d="M1082.39,661.33V612h9.86L1104,646.92l2.36,7.31q.86-2.73,2.64-7.91L1120.88,612h8.82v49.34h-6.3V620.06L1109,661.33h-5.89l-14.36-42v42Z"/><path class="cls-3" d="M1140.21,661.33V612h18.66a36.57,36.57,0,0,1,9.73.94,12.75,12.75,0,0,1,6.84,4.74,14,14,0,0,1,2.56,8.52,14.78,14.78,0,0,1-4.17,10.87q-4.15,4.22-14.38,4.21h-12.69v20.06Zm6.55-25.89h12.82c4,0,7-.74,8.85-2.23s2.81-3.74,2.81-6.75a8.93,8.93,0,0,0-1.38-5,7.25,7.25,0,0,0-3.34-2.86c-1.31-.51-3.66-.77-7.07-.77h-12.69Z"/><path class="cls-3" d="M1175.89,661.33,1195,612h7l20.29,49.34h-7.5l-5.76-15h-20.84l-5.39,15Zm14.22-20.26H1207l-5.15-13.67c-1.59-4.19-2.76-7.61-3.5-10.23a61.31,61.31,0,0,1-2.71,9.42Z"/><path class="cls-3" d="M1227.28,661.33V612H1234l26,38.81V612h6.26v49.34h-6.72l-26-38.83v38.83Z"/><path class="cls-3" d="M1291.35,661.33v-20.9L1272.28,612h8l9.73,14.89q2.88,4.41,5.07,8.35,2.19-3.87,5.41-8.72l9.62-14.52h7.57l-19.77,28.44v20.9Z"/></svg>