<?xml version="1.0" encoding="utf-8"?>
<!-- Generator: Adobe Illustrator 23.0.5, SVG Export Plug-In . SVG Version: 6.00 Build 0)  -->
<svg version="1.1" id="Layer_1" xmlns="http://www.w3.org/2000/svg" xmlns:xlink="http://www.w3.org/1999/xlink" x="0px" y="0px"
	 viewBox="0 0 156.9 70" style="enable-background:new 0 0 156.9 70;" xml:space="preserve">
<style type="text/css">
	.st0{fill:#FFFFFF;}
</style>
<g>
	<path class="st0" d="M134.7,47.1c-2.8,3.4-6.8,5.6-11.2,5.6c-8.5,0-15.3-7.9-15.3-17.6c0-9.7,6.9-17.6,15.3-17.6
		c4,0,7.7,1.8,10.4,4.6l9-7.6c-5-4.9-11.6-7.9-19.1-7.7C107,7.3,96,19.5,96,35s9.9,28.1,29,28.1c7.5,0,14.5-3.5,19.5-9L134.7,47.1z"
		/>
	<path class="st0" d="M83.2,8.3H61.5v53.4h21.7h0.1c14.9,0,27.8-11,27.8-26.7C111,13.9,92.1,8.3,83.2,8.3z M81.7,51.1h-8.7V19.2
		h11.3c2.6,0.3,14.5,2.4,14.5,15.9C98.8,45.5,90.4,51.1,81.7,51.1z"/>
	<polygon class="st0" points="49.4,8.2 49.4,45.4 26.3,8.2 10.6,8.2 10.6,61.8 22.2,61.8 22.2,23.5 46,61.8 61.5,61.8 61.5,8.2 	"/>
	<g>
		<path class="st0" d="M113.5,28.2c0.4,0.1,0.8,0.2,1.2,0.4c0.5,0.2,0.8-0.1,1-0.4c0.3-0.4,0.5-0.7,0.2-1.2
			c-0.2-0.2-0.3-0.5-0.4-0.7c-0.2-0.3-0.2-0.6,0.1-0.9c0.4-0.5,0.8-0.6,1.2-0.1c0.1,0.1,0.2,0.1,0.3,0.2c0.7,0.5,1.3,0.4,1.8-0.3
			c0.1-0.1,0.1-0.3,0.1-0.5c0-0.2-0.1-0.5-0.2-0.7c-0.2-0.7,0.1-1.2,0.8-1.3c0.1,0,0.3,0.1,0.3,0.2c0.2,0.3,0.4,0.5,0.6,0.8
			c0.2,0.4,0.5,0.5,1,0.4c1-0.3,1-0.3,1-1.4c0-0.8,0.1-0.9,0.9-0.9c0.4,0,0.6,0.1,0.7,0.5c0,0.1,0.1,0.3,0.1,0.4
			c0.2,1,0.2,1,1.3,1.1c0.5,0,0.8-0.1,0.9-0.5c0.1-0.2,0.2-0.4,0.3-0.6c0.1-0.5,0.4-0.7,0.9-0.5c0.6,0.1,0.7,0.4,0.6,0.9
			c0,0.1,0,0.2,0,0.3c-0.1,0.9,0.3,1.4,1.2,1.5c0.2,0,0.4-0.1,0.5-0.2c0.2-0.2,0.5-0.5,0.7-0.7c0.4-0.6,0.8-0.4,1.2-0.1
			c0.3,0.2,0.4,0.4,0.2,0.7c-0.1,0.2-0.2,0.4-0.2,0.6c-0.4,0.9-0.4,0.9,0.3,1.6c0.3,0.3,0.6,0.4,1,0.1c0.2-0.1,0.4-0.2,0.6-0.3
			c0.5-0.4,0.8-0.4,1.2,0.2c0.2,0.3,0.3,0.5,0,0.8c-0.2,0.2-0.4,0.5-0.6,0.7c-0.4,0.4-0.4,0.7-0.1,1.1c0.5,0.8,0.4,0.8,1.4,0.6
			c0.2,0,0.3,0,0.5-0.1c0.5-0.1,0.7,0,0.9,0.5c0.2,0.5,0.1,0.7-0.4,0.9c-0.2,0.1-0.4,0.3-0.6,0.4c-0.6,0.2-0.7,0.6-0.5,1.2
			c0.1,0.6,0.4,0.8,0.9,0.9c0.2,0,0.5,0.1,0.7,0.1c0.6,0.1,0.9,0.7,0.7,1.2c0,0.1-0.3,0.3-0.4,0.3c-0.4,0.1-0.7,0.2-1.1,0.2
			c-0.4,0.1-0.6,0.3-0.7,0.7c-0.2,0.9-0.2,0.9,0.7,1.4c0.2,0.1,0.3,0.2,0.5,0.3c0.4,0.2,0.6,0.4,0.4,0.9c-0.2,0.5-0.4,0.7-0.9,0.6
			c-0.2,0-0.4,0-0.6-0.1c-0.6-0.2-1,0-1.3,0.6c-0.2,0.4-0.2,0.8,0.2,1.1c0.2,0.2,0.3,0.4,0.5,0.6c0.5,0.4,0.5,0.8,0.1,1.3
			c-0.2,0.2-0.4,0.4-0.7,0.1c-0.2-0.1-0.5-0.2-0.7-0.3c-0.9-0.4-1-0.4-1.6,0.3c-0.1,0.2-0.2,0.5-0.1,0.8c0.2,0.5,0.4,1,0.6,1.5
			c0,0.1,0,0.1-0.1,0.1c-0.9,0.8-0.9,0.8-1.7-0.1c-0.1-0.1-0.2-0.2-0.3-0.3c-0.4-0.6-0.9-0.4-1.4-0.2c-0.5,0.2-0.5,0.6-0.4,1
			c0,0.2,0,0.4,0,0.6c0.1,0.5-0.1,0.8-0.6,0.9c-0.6,0.1-0.8-0.1-0.9-0.5c-0.1-0.2-0.2-0.3-0.2-0.5c-0.2-0.6-0.6-0.7-1.2-0.6
			c-0.6,0-0.7,0.4-0.8,0.8c0,0.2-0.1,0.4-0.2,0.6c-0.1,0.3,0,0.8-0.7,0.7c-0.6-0.1-1-0.2-1-0.9c0-0.2,0-0.4-0.1-0.6
			c-0.1-0.8-0.5-1.1-1.3-1.1c-0.1,0-0.3,0.1-0.4,0.2c-0.2,0.2-0.3,0.5-0.5,0.7c-0.4,0.7-0.4,0.7-1.2,0.4c-0.4-0.2-0.5-0.4-0.4-0.8
			c0.1-0.3,0.1-0.7,0.2-1c0.1-0.4,0-0.6-0.3-0.8c-0.8-0.5-0.8-0.5-1.6,0.1c-0.3,0.2-0.5,0.4-0.8,0.6c-0.1,0-0.1,0-0.1,0
			c-1.1-1-1.1-0.6-0.3-1.9c0.2-0.4,0.5-0.7,0.1-1.2c-0.4-0.5-0.7-0.9-1.4-0.5c-0.1,0.1-0.2,0.1-0.4,0.1c-0.8,0.3-0.9,0.3-1.2-0.5
			c-0.1-0.2,0-0.5,0.1-0.6c0.1-0.2,0.3-0.3,0.5-0.4c0.6-0.4,0.7-0.8,0.4-1.5c-0.2-0.4-0.4-0.6-0.9-0.6c-0.2,0-0.4,0-0.6,0
			c-0.6,0.1-0.8-0.2-0.9-0.8c0-0.4,0.1-0.6,0.5-0.8c0.1,0,0.3-0.1,0.4-0.1c0.8-0.3,1.1-0.8,0.8-1.7c-0.1-0.2-0.3-0.3-0.4-0.4
			c-0.2-0.1-0.5-0.2-0.7-0.3c-0.7-0.2-0.9-0.6-0.6-1.3c0.1-0.1,0.2-0.2,0.4-0.2c0.3,0,0.5,0,0.8,0c0.5,0,0.8,0,1-0.6
			c0.2-0.7,0.1-1.1-0.5-1.5C112.8,29.3,112.8,29.2,113.5,28.2z M117.1,34.5c-0.1,4,2.9,7.8,7.3,8c4.1,0.3,7.7-3,7.9-7.2
			c0.2-4.3-2.8-7.7-7-8C121,26.8,117.4,30.1,117.1,34.5z"/>
	</g>
</g>
</svg>
